<svg width="18" height="179" viewBox="0 0 18 179" fill="none" xmlns="http://www.w3.org/2000/svg">
<path d="M4.27 77.354H14V78.95H4.27V77.354ZM6.16 71.3666C6.16 70.7599 6.286 70.2186 6.538 69.7426C6.79 69.2573 7.16333 68.8793 7.658 68.6086C8.15267 68.3379 8.75 68.2026 9.45 68.2026H14V69.7846H9.688C8.99733 69.7846 8.47 69.9573 8.106 70.3026C7.73267 70.6479 7.546 71.1193 7.546 71.7166C7.546 72.3139 7.73267 72.7899 8.106 73.1446C8.47 73.4899 8.99733 73.6626 9.688 73.6626H14V75.2586H6.286V73.6626H7.168C6.85067 73.4013 6.60333 73.0699 6.426 72.6686C6.24867 72.2579 6.16 71.8239 6.16 71.3666ZM6.16 63.0588C6.16 62.4615 6.28133 61.9341 6.524 61.4768C6.75733 61.0101 7.05133 60.6461 7.406 60.3848H6.286V58.7748H14.126C14.8353 58.7748 15.4653 58.9241 16.016 59.2228C16.576 59.5215 17.0147 59.9555 17.332 60.5248C17.6493 61.0848 17.808 61.7568 17.808 62.5408C17.808 63.5861 17.5607 64.4541 17.066 65.1448C16.5807 65.8355 15.918 66.2275 15.078 66.3208V64.7388C15.4793 64.6175 15.8013 64.3608 16.044 63.9688C16.296 63.5675 16.422 63.0915 16.422 62.5408C16.422 61.8968 16.226 61.3788 15.834 60.9868C15.442 60.5855 14.8727 60.3848 14.126 60.3848H12.838C13.202 60.6555 13.51 61.0241 13.762 61.4908C14.0047 61.9481 14.126 62.4708 14.126 63.0588C14.126 63.7308 13.958 64.3468 13.622 64.9068C13.2767 65.4575 12.8007 65.8961 12.194 66.2228C11.578 66.5401 10.8827 66.6988 10.108 66.6988C9.33333 66.6988 8.64733 66.5401 8.05 66.2228C7.45267 65.8961 6.99067 65.4575 6.664 64.9068C6.328 64.3468 6.16 63.7308 6.16 63.0588ZM10.136 60.3848C9.604 60.3848 9.142 60.4968 8.75 60.7208C8.358 60.9355 8.05933 61.2201 7.854 61.5748C7.64867 61.9295 7.546 62.3121 7.546 62.7228C7.546 63.1335 7.64867 63.5161 7.854 63.8708C8.05 64.2255 8.344 64.5148 8.736 64.7388C9.11867 64.9535 9.576 65.0608 10.108 65.0608C10.64 65.0608 11.1067 64.9535 11.508 64.7388C11.9093 64.5148 12.2173 64.2255 12.432 63.8708C12.6373 63.5068 12.74 63.1241 12.74 62.7228C12.74 62.3121 12.6373 61.9295 12.432 61.5748C12.2267 61.2201 11.928 60.9355 11.536 60.7208C11.1347 60.4968 10.668 60.3848 10.136 60.3848ZM7.406 55.0825C7.014 54.8492 6.71067 54.5412 6.496 54.1585C6.272 53.7665 6.16 53.3045 6.16 52.7725H7.812V53.1785C7.812 53.8038 7.97067 54.2798 8.288 54.6065C8.60533 54.9238 9.156 55.0825 9.94 55.0825H14V56.6785H6.286V55.0825H7.406ZM9.954 44.2355C10.2433 44.2355 10.5047 44.2541 10.738 44.2915V50.1855C11.354 50.1388 11.8487 49.9101 12.222 49.4995C12.5953 49.0888 12.782 48.5848 12.782 47.9875C12.782 47.1288 12.4227 46.5221 11.704 46.1675V44.4455C12.4133 44.6788 12.9967 45.1035 13.454 45.7195C13.902 46.3261 14.126 47.0821 14.126 47.9875C14.126 48.7248 13.9627 49.3875 13.636 49.9755C13.3 50.5541 12.8333 51.0115 12.236 51.3475C11.6293 51.6741 10.9293 51.8375 10.136 51.8375C9.34267 51.8375 8.64733 51.6788 8.05 51.3615C7.44333 51.0348 6.97667 50.5821 6.65 50.0035C6.32333 49.4155 6.16 48.7435 6.16 47.9875C6.16 47.2595 6.31867 46.6108 6.636 46.0415C6.95333 45.4721 7.40133 45.0288 7.98 44.7115C8.54933 44.3941 9.20733 44.2355 9.954 44.2355ZM9.45 45.9015C8.862 45.9108 8.39067 46.1208 8.036 46.5315C7.68133 46.9421 7.504 47.4508 7.504 48.0575C7.504 48.6081 7.68133 49.0795 8.036 49.4715C8.38133 49.8635 8.85267 50.0968 9.45 50.1715V45.9015ZM10.108 43.1968C9.33333 43.1968 8.64733 43.0382 8.05 42.7208C7.45267 42.3942 6.99067 41.9555 6.664 41.4048C6.328 40.8448 6.16 40.2242 6.16 39.5428C6.16 39.0388 6.272 38.5442 6.496 38.0588C6.71067 37.5642 7 37.1722 7.364 36.8828H3.64V35.2728H14V36.8828H12.838C13.2113 37.1442 13.5193 37.5082 13.762 37.9748C14.0047 38.4322 14.126 38.9595 14.126 39.5568C14.126 40.2288 13.958 40.8448 13.622 41.4048C13.2767 41.9555 12.8007 42.3942 12.194 42.7208C11.578 43.0382 10.8827 43.1968 10.108 43.1968ZM10.136 36.8828C9.604 36.8828 9.142 36.9948 8.75 37.2188C8.358 37.4335 8.05933 37.7182 7.854 38.0728C7.64867 38.4275 7.546 38.8102 7.546 39.2208C7.546 39.6315 7.64867 40.0142 7.854 40.3688C8.05 40.7235 8.344 41.0128 8.736 41.2368C9.11867 41.4515 9.576 41.5588 10.108 41.5588C10.64 41.5588 11.1067 41.4515 11.508 41.2368C11.9093 41.0128 12.2173 40.7235 12.432 40.3688C12.6373 40.0048 12.74 39.6222 12.74 39.2208C12.74 38.8102 12.6373 38.4275 12.432 38.0728C12.2267 37.7182 11.928 37.4335 11.536 37.2188C11.1347 36.9948 10.668 36.8828 10.136 36.8828ZM5.264 32.3646C5.264 32.6539 5.166 32.8966 4.97 33.0926C4.774 33.2886 4.53133 33.3866 4.242 33.3866C3.95267 33.3866 3.71 33.2886 3.514 33.0926C3.318 32.8966 3.22 32.6539 3.22 32.3646C3.22 32.0846 3.318 31.8466 3.514 31.6506C3.71 31.4546 3.95267 31.3566 4.242 31.3566C4.53133 31.3566 4.774 31.4546 4.97 31.6506C5.166 31.8466 5.264 32.0846 5.264 32.3646ZM6.286 31.5806H14V33.1766H6.286V31.5806ZM9.954 22.4152C10.2433 22.4152 10.5047 22.4338 10.738 22.4712V28.3652C11.354 28.3185 11.8487 28.0898 12.222 27.6792C12.5953 27.2685 12.782 26.7645 12.782 26.1672C12.782 25.3085 12.4227 24.7018 11.704 24.3472V22.6252C12.4133 22.8585 12.9967 23.2832 13.454 23.8992C13.902 24.5058 14.126 25.2618 14.126 26.1672C14.126 26.9045 13.9627 27.5672 13.636 28.1552C13.3 28.7338 12.8333 29.1912 12.236 29.5272C11.6293 29.8538 10.9293 30.0172 10.136 30.0172C9.34267 30.0172 8.64733 29.8585 8.05 29.5412C7.44333 29.2145 6.97667 28.7618 6.65 28.1832C6.32333 27.5952 6.16 26.9232 6.16 26.1672C6.16 25.4392 6.31867 24.7905 6.636 24.2212C6.95333 23.6518 7.40133 23.2085 7.98 22.8912C8.54933 22.5738 9.20733 22.4152 9.954 22.4152ZM9.45 24.0812C8.862 24.0905 8.39067 24.3005 8.036 24.7112C7.68133 25.1218 7.504 25.6305 7.504 26.2372C7.504 26.7878 7.68133 27.2592 8.036 27.6512C8.38133 28.0432 8.85267 28.2765 9.45 28.3512V24.0812ZM6.16 16.9525C6.16 16.3459 6.286 15.8045 6.538 15.3285C6.79 14.8432 7.16333 14.4652 7.658 14.1945C8.15267 13.9239 8.75 13.7885 9.45 13.7885H14V15.3705H9.688C8.99733 15.3705 8.47 15.5432 8.106 15.8885C7.73267 16.2339 7.546 16.7052 7.546 17.3025C7.546 17.8999 7.73267 18.3759 8.106 18.7305C8.47 19.0759 8.99733 19.2485 9.688 19.2485H14V20.8445H6.286V19.2485H7.168C6.85067 18.9872 6.60333 18.6559 6.426 18.2545C6.24867 17.8439 6.16 17.4099 6.16 16.9525ZM7.588 9.89073H11.858C12.1473 9.89073 12.3573 9.8254 12.488 9.69473C12.6093 9.55473 12.67 9.3214 12.67 8.99473V8.01473H14V9.27473C14 9.9934 13.832 10.5441 13.496 10.9267C13.16 11.3094 12.614 11.5007 11.858 11.5007H7.588V12.4107H6.286V11.5007H4.368V9.89073H6.286L6.286 8.01473H7.588L7.588 9.89073ZM14.126 3.74375C14.126 4.35042 14.0187 4.89642 13.804 5.38175C13.58 5.85775 13.2813 6.23575 12.908 6.51575C12.5253 6.79575 12.1007 6.94508 11.634 6.96375V5.31175C11.9607 5.28375 12.236 5.12975 12.46 4.84975C12.6747 4.56042 12.782 4.20108 12.782 3.77175C12.782 3.32375 12.698 2.97842 12.53 2.73575C12.3527 2.48375 12.1287 2.35775 11.858 2.35775C11.5687 2.35775 11.354 2.49775 11.214 2.77775C11.074 3.04842 10.92 3.48242 10.752 4.07975C10.5933 4.65842 10.4393 5.12975 10.29 5.49375C10.1407 5.85775 9.912 6.17508 9.604 6.44575C9.296 6.70708 8.89 6.83775 8.386 6.83775C7.97533 6.83775 7.602 6.71642 7.266 6.47375C6.92067 6.23108 6.65 5.88575 6.454 5.43775C6.258 4.98042 6.16 4.45775 6.16 3.86975C6.16 2.99242 6.384 2.28775 6.832 1.75575C7.27067 1.21442 7.87267 0.925083 8.638 0.88775V2.48375C8.29267 2.51175 8.01733 2.65175 7.812 2.90375C7.60667 3.15575 7.504 3.49642 7.504 3.92575C7.504 4.34575 7.58333 4.66775 7.742 4.89175C7.90067 5.11575 8.11067 5.22775 8.372 5.22775C8.57733 5.22775 8.75 5.15308 8.89 5.00375C9.03 4.85442 9.142 4.67242 9.226 4.45775C9.30067 4.24308 9.39867 3.92575 9.52 3.50575C9.66933 2.94575 9.82333 2.48842 9.982 2.13375C10.1313 1.76975 10.3553 1.45708 10.654 1.19575C10.9527 0.934416 11.3493 0.799083 11.844 0.78975C12.2827 0.78975 12.6747 0.911083 13.02 1.15375C13.3653 1.39642 13.636 1.74175 13.832 2.18975C14.028 2.62842 14.126 3.14642 14.126 3.74375Z" fill="#344F10" fill-opacity="0.5"/>
<rect x="8" y="90" width="1" height="88.0769" fill="#344F10" fill-opacity="0.5"/>
</svg>
